<?xml version="1.0" encoding="utf-8"?>
<!-- Generator: Adobe Illustrator 24.0.0, SVG Export Plug-In . SVG Version: 6.00 Build 0)  -->
<svg version="1.1" id="Layer_1" xmlns="http://www.w3.org/2000/svg" xmlns:xlink="http://www.w3.org/1999/xlink" x="0px" y="0px"
	 viewBox="0 0 500 500" style="enable-background:new 0 0 500 500;" xml:space="preserve">
<style type="text/css">
	.st0{fill:url(#SVGID_1_);}
	.st1{fill:url(#SVGID_2_);}
	.st2{fill:url(#SVGID_3_);}
</style>
<g>
	<linearGradient id="SVGID_1_" gradientUnits="userSpaceOnUse" x1="461.742" y1="191.1891" x2="243.1599" y2="437.7497">
		<stop  offset="0" style="stop-color:#FDAD4E"/>
		<stop  offset="1" style="stop-color:#EE2C4E"/>
	</linearGradient>
	<path class="st0" d="M290.09,399.9c56.69-9.29,102.76-50.19,119.51-104.01c-43.79,15.3-90.79,20.93-119.51,23.02V399.9z"/>
	<linearGradient id="SVGID_2_" gradientUnits="userSpaceOnUse" x1="333.3241" y1="77.3434" x2="114.742" y2="323.9041">
		<stop  offset="0" style="stop-color:#FDAD4E"/>
		<stop  offset="1" style="stop-color:#EE2C4E"/>
	</linearGradient>
	<path class="st1" d="M380.98,153.94c-27.65-32.92-69.14-53.84-115.52-53.84s-87.87,20.92-115.52,53.84
		c35.56,14.94,74.59,23.2,115.52,23.2S345.42,168.88,380.98,153.94z"/>
	<linearGradient id="SVGID_3_" gradientUnits="userSpaceOnUse" x1="352.2843" y1="94.152" x2="133.7021" y2="340.7127">
		<stop  offset="0" style="stop-color:#FDAD4E"/>
		<stop  offset="1" style="stop-color:#EE2C4E"/>
	</linearGradient>
	<path class="st2" d="M406.28,196.66c-43.08,19.11-90.73,29.73-140.82,29.73s-97.72-10.62-140.8-29.72c0,0-17.97-7.89-40.65-17.98
		c0,0,10.05,24.77,32.91,45.79c-1.53,8.62-2.35,17.47-2.35,26.53c0,74.95,54.64,137.14,126.27,148.88V297.09
		c0-14.38,11.26-25.94,25.65-26.3c39.68-1,104.18-8.87,149.52-30.42C414.93,225.04,411.58,210.37,406.28,196.66z"/>
</g>
</svg>
